<svg width="36" height="36" fill="none" xmlns="http://www.w3.org/2000/svg"><path d="M36 0h-7.303L7.709 20.902l-1.158-1.159H1.826v4.726l2.418 2.417-3.237 3.237a3.448 3.448 0 000 4.87A3.433 3.433 0 003.442 36c.882 0 1.764-.336 2.435-1.007l3.237-3.237 2.307 2.307h4.725v-4.725l-1.126-1.126L36 7.224V0zM2.498 33.502a1.337 1.337 0 010-1.889l.493-.492 1.888 1.888-.493.493c-.52.52-1.368.52-1.888 0zm3.872-1.984L4.48 29.63l1.253-1.253 1.889 1.888-1.253 1.253zm7.668.437h-1.744l-8.36-8.36v-1.743h1.744l8.36 8.36v1.743zM33.892 6.35L13.529 26.72l-1.435-1.435 8.069-8.07-1.49-1.49-8.07 8.07L9.2 22.391 29.567 2.11h4.325v4.24z" fill="#fff"/></svg>