<svg width="28" height="36" fill="none" xmlns="http://www.w3.org/2000/svg"><path d="M25.36 0H5.095a4.56 4.56 0 00-4.55 4.53v26.94A4.56 4.56 0 005.096 36h20.276a2.088 2.088 0 001.491-.596c.38-.39.592-.913.592-1.457V2.096A2.1 2.1 0 0025.359 0zm-8.992 1.714h5.035v8.04l-1.787-2.85a.856.856 0 00-1.47 0l-1.778 2.837V1.714zM2.28 4.53a2.829 2.829 0 012.815-2.816h9.557v8.743A1.547 1.547 0 0015.72 12c.755.227 1.432-.261 1.835-.904l1.333-2.143 1.332 2.143c.4.634 1.076 1.123 1.852.904a1.547 1.547 0 001.067-1.534v-8.73h2.233a.364.364 0 01.36.36v24.856c-.119-.02-.24-.03-.36-.03H5.096a4.526 4.526 0 00-2.815.982V4.53zm23.45 26.091l-19.76.022a.857.857 0 000 1.714l19.76-.021v1.594a.364.364 0 01-.102.257.365.365 0 01-.257.103H5.096a2.818 2.818 0 010-5.636h20.276a.364.364 0 01.36.36v1.607z" fill="#fff"/></svg>