<svg width="31" height="36" fill="none" xmlns="http://www.w3.org/2000/svg"><path fill-rule="evenodd" clip-rule="evenodd" d="M2.054 12.501l3.485-1.284a4.296 4.296 0 01-1.412-4.316c.758-3.122 4.518-4.307 6.894-2.18l2.406 2.153.476-3.23c.471-3.18 4.108-4.71 6.667-2.815a4.313 4.313 0 011.657 4.239l3.287-1.211c1.617-.596 3.411.251 4 1.888l1.423 3.959a1.057 1.057 0 01-.622 1.35l-16.258 5.99h15.699c.574 0 1.04.471 1.04 1.053v14.744c0 1.742-1.4 3.16-3.12 3.16H6.87c-1.72 0-3.12-1.418-3.12-3.16V20.842l-.805.297a1.037 1.037 0 01-1.334-.63L.188 16.551c-.588-1.637.249-3.454 1.866-4.05zm7.589-6.203c-1.207-1.08-3.112-.474-3.496 1.106-.41 1.685 1.2 3.146 2.81 2.554l3.382-1.247-2.696-2.413zm9.698-3.77c-1.3-.962-3.142-.18-3.38 1.428l-.533 3.617 3.382-1.246c1.61-.594 1.914-2.774.531-3.798zm-.49 10.508l9.775-3.602-1.067-2.968a1.038 1.038 0 00-1.334-.63l-8.797 3.242-1.955.72-1.955.72-1.955.72-8.798 3.242a1.058 1.058 0 00-.621 1.35L3.21 18.8l9.775-3.603 1.955-.72 1.955-.72 1.955-.72zm8.824 20.858H6.87c-.573 0-1.04-.473-1.04-1.053V20.076l2.511-.926h20.375v13.69c0 .581-.467 1.054-1.04 1.054z" fill="#fff"/></svg>