<svg width="30" height="36" fill="none" xmlns="http://www.w3.org/2000/svg"><path d="M20.625 10.681v-2.54l3.256-6.513A1.127 1.127 0 0022.875 0h-4.5c-.298 0-.584.119-.795.33l-1.455 1.454L14.67.33a1.123 1.123 0 00-.795-.33h-6.75a1.125 1.125 0 00-1.006 1.628l3.256 6.513v2.54c-5.005 3.682-9 11.094-9 16.857C.375 36 7.81 36 15 36s14.625 0 14.625-8.462c0-5.763-3.995-13.175-9-16.857zm-9-1.681h6.75v1.125h-6.75V9zm1.784-6.75l1.92 1.92c.44.44 1.152.44 1.591 0l1.92-1.92h2.215l-2.25 4.5h-7.61l-2.25-4.5h4.464zM15 33.75c-8.793 0-12.375-.562-12.375-6.212 0-4.552 3.294-11.647 8.227-15.163h8.296c4.933 3.516 8.227 10.611 8.227 15.163 0 5.65-3.581 6.212-12.375 6.212z" fill="#fff"/></svg>