<svg width="36" height="33" fill="none" xmlns="http://www.w3.org/2000/svg"><path fill-rule="evenodd" clip-rule="evenodd" d="M.153 14.507c.189-1.588.53-2.87 1.017-3.828l-.655-.218a.75.75 0 01-.485-.914c.446-1.59 1.684-3.046 3.678-4.325.462-.296.91-.547 1.307-.752l-.099-.05a.751.751 0 01.001-1.341C5.14 2.968 10.412.356 14.202.003a.75.75 0 01.8.582l.894 3.951a.75.75 0 01-.383.83l-.128.067c.836.332 1.75.567 2.67.567.9 0 1.786-.226 2.595-.55l-.162-.084a.75.75 0 01-.384-.83l.894-3.951a.75.75 0 01.8-.582c3.79.353 9.063 2.965 9.285 3.076a.749.749 0 010 1.342l-.098.05c.397.204.845.455 1.307.751 1.994 1.28 3.233 2.734 3.678 4.325a.75.75 0 01-.485.914l-.655.218c.488.958.829 2.24 1.017 3.828.178 1.487.152 2.697.151 2.76a.752.752 0 01-1.156.612l-4.44-2.859a.75.75 0 01-.208-.2l-1.084-1.55c-.236.58-.257 1.215-.065 1.92.25.912.777 1.583.78 1.588a.75.75 0 01.13.704c-2.892 8.821-4.397 14.631-4.476 14.938l-.004.013a.75.75 0 01-.726.564H11.252a.751.751 0 01-.727-.564c-.015-.059-1.523-5.93-4.478-14.951a.75.75 0 01.128-.704l.003-.004c.04-.053.522-.687.766-1.543.201-.709.181-1.363-.057-1.957l-1.08 1.545a.749.749 0 01-.21.2l-4.44 2.859a.75.75 0 01-1.156-.612v-.002c0-.075-.024-1.28.152-2.758zM13.69 1.579c-2.29.36-5.073 1.476-6.71 2.197l4.259 2.131 3.067-1.603-.616-2.725zm8.62 0l-.616 2.725 3.067 1.603 4.259-2.131c-1.636-.721-4.417-1.836-6.71-2.197zm9.029 12.26l3.124 2.012c-.09-1.46-.371-3.464-1.076-4.69l-3.18 1.06 1.132 1.618zm2.93-4.553C33.2 7.12 30.22 5.724 29.274 5.326l-4.077 2.04-.983.98.336.504a.718.718 0 01.048.071l1.524 2.287a.675.675 0 01.037.056l.395.593 7.715-2.571zm-24.823 2.57l2.34-3.51-.983-.98-4.078-2.04a14.87 14.87 0 00-2.208 1.159c-1.594 1.022-2.39 2.014-2.784 2.802l7.713 2.57zM4.66 13.84l1.133-1.619-3.18-1.06c-.706 1.227-.986 3.23-1.077 4.691L4.66 13.84zm9.043-7.528c1.032.532 2.095 1.049 3.547 1.143.204.013.346.012.513.011H18c.089 0 .166.002.238.004.167.004.309.007.513-.004 1.464-.074 2.544-.597 3.578-1.136l1.171.612-.781.777a.75.75 0 00-.095.948l.38.57.86 1.29.7 1.047.853 1.281.208.311a.749.749 0 00.861.296l1.101-.367c-.234.792-.227 1.65.029 2.548a6.49 6.49 0 00.797 1.732c-.34 1.042-.661 2.043-.963 2.996l-.459 1.46-.099.32-.294.956-.448 1.476a256.33 256.33 0 00-1.36 4.667l-.415 1.5c-.083.298-.15.55-.203.749H11.83l-.202-.75-.415-1.5a257.1 257.1 0 00-1.362-4.666l-.448-1.476c-.126-.414-.257-.838-.393-1.275l-.458-1.461a296.91 296.91 0 00-.964-2.996c.235-.36.583-.977.799-1.732.255-.897.262-1.755.028-2.547l1.1.366a.749.749 0 00.86-.296l.209-.312.854-1.28.698-1.049.86-1.289.38-.57a.751.751 0 00-.095-.947l-.78-.777 1.203-.63z" fill="#fff"/></svg>