<svg width="36" height="26" fill="none" xmlns="http://www.w3.org/2000/svg"><path fill-rule="evenodd" clip-rule="evenodd" d="M.703 2.841a.7.7 0 00-.564.287.716.716 0 00-.11.628L4.4 18.47l.242 1.42v3.979A2.12 2.12 0 006.75 26h22.5c1.163 0 2.11-.956 2.11-2.131V19.89l.241-1.421 4.37-14.714a.716.716 0 00-.11-.628.7.7 0 00-.564-.287 4.585 4.585 0 00-3.601 1.752 2.774 2.774 0 00-1.321-.33c-1.55 0-2.813 1.274-2.813 2.84 0 1.178.713 2.19 1.725 2.62l-.13.158c-.762.928-2.116 1.485-3.343 1.485-1.153 0-2.366-.473-3.09-1.205l-.348-.352a2.844 2.844 0 001.952-2.705c0-1.567-1.261-2.842-2.812-2.842h-.071c.047-.233.07-.47.07-.71 0-2.232-2.019-3.94-4.254-3.475-1.303.27-2.38 1.33-2.68 2.634a3.69 3.69 0 00-.025 1.551h-.072c-1.55 0-2.812 1.275-2.812 2.842 0 1.264.82 2.337 1.952 2.705l-.348.352c-.764.772-2.013 1.205-3.09 1.205-1.269 0-2.612-.597-3.343-1.485l-.13-.157a2.847 2.847 0 001.725-2.62c0-1.567-1.262-2.842-2.813-2.842-.469 0-.92.115-1.32.331A4.586 4.586 0 00.702 2.841zM6.047 23.87v-3.98l-.18-1.421L1.695 4.42A3.203 3.203 0 013.51 5.944a.699.699 0 001.117.159c.265-.271.62-.42.998-.42.775 0 1.406.637 1.406 1.42a1.415 1.415 0 01-1.564 1.413.701.701 0 00-.7.367.716.716 0 00.078.792l.916 1.114c.999 1.214 2.736 1.998 4.425 1.998 1.45 0 3.055-.58 4.085-1.621l1.414-1.429a.716.716 0 00.152-.774.703.703 0 00-.65-.438h-.703a1.415 1.415 0 01-1.406-1.421c0-.784.631-1.421 1.406-1.421h1.08a.702.702 0 00.609-.356.717.717 0 000-.71 2.159 2.159 0 01-.222-1.585 2.13 2.13 0 011.593-1.564 2.117 2.117 0 012.565 2.084c0 .374-.097.743-.281 1.065a.717.717 0 000 .71.7.7 0 00.608.356h1.08c.775 0 1.406.637 1.406 1.42 0 .784-.631 1.421-1.406 1.421h-.703a.703.703 0 00-.65.439.716.716 0 00.152.774l1.414 1.429c.99 1 2.555 1.62 4.085 1.62 1.625 0 3.382-.728 4.425-1.997l.916-1.114a.716.716 0 00.077-.792.702.702 0 00-.7-.367 1.414 1.414 0 01-1.563-1.412c0-.784.63-1.421 1.406-1.421.378 0 .733.149.998.42a.7.7 0 001.117-.16 3.204 3.204 0 011.815-1.522L30.133 18.47l-.18 1.42v3.98c0 .392-.315.71-.703.71H6.75a.708.708 0 01-.703-.71z" fill="#fff"/></svg>