<svg width="218" height="65" fill="none" xmlns="http://www.w3.org/2000/svg"><path d="M6 0a6 6 0 00-6 6v14.211l.03.033c.019.022 1.937 2.237 5.377 4.42 3.156 2.002 8.284 4.39 14.784 4.39a.698.698 0 01.493 1.193l-4.83 4.834a.697.697 0 01-.494.204h-2.306v6.134c2.461 2.393 5.57 3.606 9.248 3.606a.698.698 0 01.58 1.087l-4.419 6.595V65H212a6 6 0 006-6V6a6 6 0 00-6-6H6z" fill="#fff" fill-opacity=".75"/><path d="M0 41.012v-5.727h6.747v5.727H0zm0 10.784V42.41h12.069c2.44 2.38 5.446 3.71 8.955 3.967l-3.631 5.42H0zm0 3.674v-2.277h12.156V65H6.869v-8.832a.698.698 0 00-.698-.698H0z" fill="#fff" fill-opacity=".75"/><path d="M5.473 64.977A6 6 0 010 59v-2.133h5.473v8.11zM17.067 65h-3.515V53.193h3.515V65zM0 33.888v-11.67a30.019 30.019 0 004.614 3.597c3.052 1.944 7.859 4.23 13.94 4.588l-3.483 3.485H0zm11.658 1.397v5.727H8.143v-5.727h3.515z" fill="#fff" fill-opacity=".75"/></svg>