<svg width="214" height="65" fill="none" xmlns="http://www.w3.org/2000/svg"><path d="M6 0a6 6 0 00-6 6v14.649A4.491 4.491 0 012.323 20c1.393 0 2.688.632 3.566 1.717.36-.09.72-.136 1.079-.136 2.065 0 3.857 1.39 4.44 3.371 1.411.437 2.541 1.548 3.03 2.96 2.167-.145 4.082 1.293 4.697 3.353 1.915.584 3.317 2.398 3.317 4.541 0 .367-.045.736-.134 1.102A4.74 4.74 0 0124 40.548c0 2.616-2.083 4.742-4.645 4.742a4.39 4.39 0 01-1.079-.136 4.574 4.574 0 01-3.566 1.717c-1.996 0-3.755-1.312-4.392-3.197-1.045-.144-1.947-.725-2.556-1.545H4.286c-1.082 0-1.963.9-1.963 2.004 0 .535.204 1.037.575 1.417l.973.994 1.396-1.425 4.343 2.218-2.274 3.868a2.685 2.685 0 00.39 3.225l.336.344h5.873c.854 0 1.549.71 1.549 1.58v1.581c0 .741-.503 1.36-1.178 1.53l-.41.418a2.573 2.573 0 00-.735 1.813A4.165 4.165 0 0111.546 65H208a6 6 0 006-6V6a6 6 0 00-6-6H6z" fill="url(#paint0_linear_1:6063)"/><path d="M3.108 64.258h5.994c1.044 0 1.94-.653 2.318-1.58l.25-1.581c.08-.565.267-1.1.56-1.58l1.706-1.582v-1.58H0V59a5.998 5.998 0 003.108 5.258z" fill="url(#paint1_linear_1:6063)"/><path d="M0 53.742a3.291 3.291 0 00.774-2.13h1.549c0 1.2-.44 2.305-1.167 3.162h4.888a4.25 4.25 0 01-.625-2.211c0-.765.204-1.516.59-2.172l1.413-2.405-1.85-.944L3.87 48.78l-2.068-2.112a3.598 3.598 0 01-1.029-2.535c0-1.976 1.576-3.584 3.512-3.584H7.05a4.027 4.027 0 01-.083-.79c0-.269.032-.533.085-.79H3.496c-1.5 0-2.722-1.247-2.722-2.779 0-.293.056-.578.144-.857a5.365 5.365 0 01-.655-.345c-.086.06-.174.116-.263.169v18.586z" fill="url(#paint2_linear_1:6063)"/><path d="M0 33.166l.207-.189.51.407a3.781 3.781 0 003.71.596l.913-.342.123.984c.164 1.32 1.13 2.383 2.363 2.677.2-.254.43-.486.69-.686v-.016c0-2.18 1.737-3.952 3.871-3.952.58 0 1.144.134 1.662.392a4.64 4.64 0 013.353-1.947 3.085 3.085 0 00-2.692-1.606 3 3 0 00-.675.082l-.79.18-.14-.814c-.223-1.288-1.219-2.312-2.478-2.55l-.525-.099-.096-.536c-.336-1.862-2.245-3.107-4.14-2.368l-.593.23-.34-.547c-.572-.927-1.548-1.481-2.61-1.481-.664 0-1.306.224-1.856.648l-.467.36v10.577z" fill="url(#paint3_linear_1:6063)"/><path d="M3.496 37.387a1.187 1.187 0 01-1.173-1.198 1.2 1.2 0 01.082-.433 5.256 5.256 0 001.718-.051c.203.63.538 1.2.962 1.682H3.496z" fill="url(#paint4_linear_1:6063)"/><path d="M21 37.881a3.16 3.16 0 011.452 2.667c0 2.114-2.081 3.77-4.198 2.944l-.592-.23-.34.547c-.574.927-1.55 1.481-2.612 1.481-1.47 0-2.746-1.066-3.034-2.534l-.13-.654-.652.02c-.042 0-.082.005-.055.007-1.28 0-2.323-1.064-2.323-2.37 0-.847.458-1.635 1.195-2.057l.457-.263-.08-.611-.006-.045a1.33 1.33 0 01-.018-.186c0-1.307 1.043-2.371 2.323-2.371.517 0 1.016.182 1.44.528l.767.625.417-.907c.51-1.11 1.607-1.827 2.795-1.827 1.708 0 3.097 1.418 3.097 3.161 0 .37-.071.747-.213 1.123l-.227.606.537.346z" fill="url(#paint5_linear_1:6063)"/><defs><linearGradient id="paint0_linear_1:6063" x1="0" y1="0" x2="214" y2="65" gradientUnits="userSpaceOnUse"><stop stop-color="#6B4185"/><stop offset="1" stop-color="#4749A3"/></linearGradient><linearGradient id="paint1_linear_1:6063" x1="0" y1="0" x2="214" y2="65" gradientUnits="userSpaceOnUse"><stop stop-color="#6B4185"/><stop offset="1" stop-color="#4749A3"/></linearGradient><linearGradient id="paint2_linear_1:6063" x1="0" y1="0" x2="214" y2="65" gradientUnits="userSpaceOnUse"><stop stop-color="#6B4185"/><stop offset="1" stop-color="#4749A3"/></linearGradient><linearGradient id="paint3_linear_1:6063" x1="0" y1="0" x2="214" y2="65" gradientUnits="userSpaceOnUse"><stop stop-color="#6B4185"/><stop offset="1" stop-color="#4749A3"/></linearGradient><linearGradient id="paint4_linear_1:6063" x1="0" y1="0" x2="214" y2="65" gradientUnits="userSpaceOnUse"><stop stop-color="#6B4185"/><stop offset="1" stop-color="#4749A3"/></linearGradient><linearGradient id="paint5_linear_1:6063" x1="0" y1="0" x2="214" y2="65" gradientUnits="userSpaceOnUse"><stop stop-color="#6B4185"/><stop offset="1" stop-color="#4749A3"/></linearGradient></defs></svg>