<svg width="370" height="65" fill="none" xmlns="http://www.w3.org/2000/svg"><path d="M370 4a4 4 0 00-4-4H91.252c-2.92 0-4.855 3.026-3.632 5.676l26.307 57A4 4 0 00117.559 65H366a4 4 0 004-4V4z" fill="#fff"/><path d="M0 61a4 4 0 004 4h99.748c2.919 0 4.855-3.026 3.632-5.676l-26.307-57A4 4 0 0077.44 0H4a4 4 0 00-4 4v57z" fill="url(#paint0_linear_1:6260)"/><defs><linearGradient id="paint0_linear_1:6260" x1="0" y1="65" x2="117.289" y2="46.688" gradientUnits="userSpaceOnUse"><stop stop-color="#6B4185"/><stop offset="1" stop-color="#4749A3"/></linearGradient></defs></svg>